<?xml version="1.0" standalone="no"?>
<!DOCTYPE svg PUBLIC "-//W3C//DTD SVG 20010904//EN"
 "http://www.w3.org/TR/2001/REC-SVG-20010904/DTD/svg10.dtd">
<svg version="1.0" xmlns="http://www.w3.org/2000/svg"
 width="1080.000000pt" height="1080.000000pt" viewBox="0 0 1080.000000 1080.000000"
 preserveAspectRatio="xMidYMid meet">
<metadata>
Created by potrace 1.14, written by Peter Selinger 2001-2017
</metadata>
<g transform="translate(0.000000,1080.000000) scale(0.100000,-0.100000)"
fill="#000000" stroke="none">
<path d="M0 5400 l0 -5400 5400 0 5400 0 0 5400 0 5400 -5400 0 -5400 0 0
-5400z m10750 0 l0 -5350 -410 0 -411 0 -262 242 c-144 133 -452 417 -684 631
-233 214 -423 396 -423 404 0 9 9 55 21 104 11 49 19 94 17 101 -2 6 -14 -35
-27 -92 -14 -63 -26 -99 -32 -93 -6 6 -4 23 5 44 7 19 22 72 32 118 12 57 20
78 24 65 4 -10 7 62 7 161 0 103 -4 169 -8 155 -5 -16 -7 -5 -4 30 4 41 2 50
-5 35 -7 -15 -9 -6 -5 35 3 35 1 46 -4 30 -8 -25 -8 -25 -15 7 -4 18 -11 33
-16 33 -4 0 -7 6 -7 12 2 22 -26 98 -35 98 -5 0 -6 4 -3 10 7 11 -84 200 -97
200 -5 0 -7 4 -4 8 3 5 -3 18 -12 28 -10 10 -19 22 -20 27 -5 22 -34 67 -43
67 -6 0 -7 5 -4 10 3 6 2 10 -3 10 -6 0 -13 8 -17 18 -3 9 9 2 29 -17 19 -19
33 -38 30 -43 -3 -4 0 -8 6 -8 6 0 8 -4 5 -10 -3 -5 -2 -10 4 -10 9 0 38 -45
43 -67 1 -5 10 -17 20 -27 9 -10 15 -23 12 -28 -3 -4 -1 -8 4 -8 13 0 54 -89
47 -100 -4 -6 -2 -10 3 -10 9 0 37 -76 35 -98 0 -6 3 -12 7 -12 5 0 12 -15 16
-32 4 -18 9 -27 12 -20 5 17 -18 102 -28 102 -4 0 -7 6 -7 13 2 21 -26 97 -35
97 -5 0 -7 4 -3 10 7 11 -34 100 -47 100 -5 0 -7 4 -4 8 3 5 -3 18 -12 28 -10
10 -19 22 -20 27 -5 22 -34 67 -43 67 -6 0 -7 5 -4 10 3 6 1 10 -5 10 -6 0 -9
4 -6 9 3 5 -15 27 -41 50 -26 22 -43 41 -38 41 5 0 -19 27 -53 60 -35 33 -67
60 -72 60 -5 0 -14 9 -20 20 -6 11 -15 18 -20 15 -5 -3 -14 4 -20 16 -7 11
-14 18 -17 16 -3 -3 -15 3 -27 14 -25 23 -267 144 -280 141 -5 -2 -12 2 -16 9
-5 7 -10 8 -14 1 -4 -7 44 -36 116 -72 127 -62 166 -86 156 -95 -8 -9 -328
156 -325 167 1 6 -14 15 -33 20 -19 6 -39 13 -45 18 -5 4 -19 4 -30 0 -17 -6
-14 -9 18 -15 20 -4 40 -12 43 -17 4 -6 -1 -8 -12 -5 -11 4 -41 12 -68 18 -40
10 -46 14 -30 20 12 5 2 8 -31 7 -27 0 -103 2 -168 4 -69 3 -112 1 -105 -4 8
-6 -9 -7 -42 -4 -30 3 -49 3 -42 0 8 -4 -38 -23 -102 -44 -64 -21 -132 -48
-152 -59 -24 -14 -40 -19 -47 -12 -13 13 18 28 153 72 63 21 104 38 90 39 -14
0 -83 -20 -155 -44 l-130 -44 -40 37 c-22 21 -208 192 -412 381 -205 188 -373
344 -373 345 0 1 106 117 235 256 l234 254 1 68 0 68 -75 76 c-41 42 -75 74
-75 70 0 -6 -89 78 -215 203 -33 33 -64 60 -68 60 -4 0 -36 29 -69 65 -34 36
-66 65 -73 65 -6 0 -18 9 -28 20 -16 19 -16 20 1 21 9 1 -3 7 -28 15 -25 8
-50 12 -57 10 -6 -3 -14 2 -17 10 -3 9 -10 13 -15 10 -5 -3 -16 5 -24 18 -15
23 -15 24 6 18 12 -2 28 -9 35 -15 6 -5 12 -7 12 -3 0 3 9 -3 20 -14 11 -11
27 -20 36 -20 9 0 31 -7 50 -16 19 -9 38 -14 41 -10 3 3 -2 6 -13 6 -17 1 -17
2 5 20 13 11 30 20 39 20 27 0 82 49 82 74 0 13 10 30 22 38 17 11 20 20 14
42 -4 15 -11 24 -16 21 -15 -9 -21 14 -10 36 11 20 12 20 25 2 7 -10 15 -27
17 -38 3 -11 5 4 6 33 0 29 -3 50 -8 47 -5 -3 -13 3 -19 12 -6 10 -11 14 -11
9 0 -6 -9 0 -20 12 -12 12 -31 22 -44 22 -19 0 -22 4 -19 33 2 17 0 26 -3 20
-3 -7 -10 -13 -15 -13 -14 0 -11 36 4 49 10 7 13 34 11 93 -3 75 -5 85 -28
103 -15 12 -26 31 -26 44 0 23 1 23 25 7 24 -16 25 -16 25 8 0 16 -11 32 -30
46 -17 12 -28 25 -25 30 3 5 -10 21 -29 35 -20 15 -34 31 -33 35 2 10 -71 79
-77 73 -2 -3 -9 5 -16 16 -6 12 -15 19 -21 16 -5 -4 -12 1 -15 9 -3 9 -10 14
-14 11 -5 -3 -16 5 -24 17 -9 12 -16 18 -16 13 0 -6 -7 -2 -14 8 -8 10 -31 20
-52 23 -22 2 -32 1 -24 -2 8 -4 19 -13 23 -21 5 -7 12 -11 17 -8 4 3 11 -2 14
-10 4 -12 0 -14 -22 -9 -15 4 -30 11 -33 16 -3 6 -10 10 -15 11 -5 1 -8 7 -8
14 1 8 -40 11 -151 10 -109 -2 -151 1 -148 9 2 6 -3 14 -12 18 -9 3 -14 10
-10 15 3 5 -5 17 -17 26 -13 8 -24 20 -24 25 -1 6 -2 12 -3 15 0 3 -10 1 -20
-5 -13 -7 -22 -7 -26 0 -4 7 -12 7 -25 0 -10 -6 -21 -6 -24 -1 -7 10 -126 -27
-144 -46 -7 -7 -10 -13 -5 -13 4 0 4 -4 -2 -8 -19 -14 -43 -78 -35 -92 6 -10
10 -7 15 13 4 15 12 27 18 27 6 0 7 3 4 6 -6 6 29 44 40 44 2 0 -7 -19 -19
-43 -12 -23 -21 -45 -20 -49 1 -5 -2 -8 -8 -8 -5 0 -10 -7 -10 -15 0 -9 -6
-12 -15 -8 -13 5 -14 2 -4 -21 7 -14 16 -26 20 -26 5 0 6 -6 3 -14 -3 -7 2
-21 11 -29 9 -9 14 -19 13 -21 -2 -3 4 -13 12 -23 17 -20 22 -53 10 -53 -5 0
-12 10 -15 21 -6 17 -9 19 -16 8 -8 -13 -13 7 -12 49 1 6 -3 12 -8 12 -5 0 -9
11 -9 25 0 14 -4 25 -10 25 -5 0 -7 -8 -3 -17 4 -12 0 -11 -11 5 -10 12 -22
22 -27 22 -6 0 -25 16 -42 35 -17 19 -34 35 -38 35 -5 0 -28 19 -52 43 -80 76
-109 102 -115 102 -4 1 -25 19 -48 40 -59 58 -107 100 -114 100 -3 0 -22 16
-41 36 -35 34 -39 36 -113 36 -42 1 -79 -3 -82 -8 -3 -5 -10 -7 -15 -4 -5 4
-9 0 -9 -7 0 -7 -56 -70 -124 -140 -67 -71 -121 -129 -120 -131 2 -2 -24 -29
-56 -61 -33 -32 -60 -61 -60 -65 0 -4 -19 -24 -42 -45 l-41 -37 -46 44 c-25
24 -136 126 -246 227 -110 101 -217 200 -239 219 -25 23 -35 29 -28 16 6 -12
32 -39 58 -60 25 -22 70 -62 99 -90 28 -27 86 -81 129 -120 42 -38 101 -92
130 -120 29 -27 70 -65 90 -83 20 -18 36 -40 36 -49 0 -11 -15 -2 -48 28 -26
24 -154 143 -285 263 -130 121 -237 222 -237 226 0 6 248 276 1646 1791 268
290 403 444 408 464 l8 30 -33 -30 -32 -30 7 30 c9 36 24 55 42 55 8 0 14 5
14 12 0 6 -3 8 -6 5 -4 -3 -29 37 -56 91 -27 53 -54 100 -61 104 -7 4 -7 8 -2
8 6 0 3 5 -5 11 -13 8 -12 10 3 7 10 -2 18 -7 18 -13 0 -5 7 -14 15 -18 8 -5
12 -12 9 -18 -4 -5 -1 -9 5 -9 6 0 9 -4 6 -9 -4 -5 -3 -11 2 -13 13 -5 52 -74
52 -92 0 -9 5 -16 10 -16 12 0 13 -4 -4 50 -16 51 -47 110 -59 110 -5 0 -5 5
-2 10 3 6 1 10 -5 10 -6 0 -8 5 -5 10 3 6 -1 13 -9 16 -9 3 -13 10 -10 15 3 5
-2 12 -10 15 -9 3 -13 10 -10 15 3 5 -2 12 -10 15 -9 3 -13 10 -10 15 3 5 -2
12 -10 15 -9 3 -13 10 -10 15 3 5 -2 12 -10 15 -9 3 -16 13 -16 20 0 8 -7 17
-15 20 -8 4 -15 12 -15 20 0 7 -9 18 -20 24 -11 6 -18 15 -15 20 3 5 -4 14
-15 20 -11 6 -18 15 -15 20 3 5 -8 18 -25 30 -17 12 -28 25 -25 30 3 5 -9 18
-25 30 -17 12 -28 25 -25 28 6 6 -9 23 -99 113 -31 30 -56 59 -56 64 0 4 -47
53 -105 108 -58 55 -103 102 -100 105 7 8 -46 62 -61 62 -7 0 -50 40 -95 89
-46 50 -86 88 -90 85 -4 -2 -24 16 -44 41 -21 25 -41 43 -45 40 -5 -3 -23 13
-41 35 -17 21 -36 37 -40 34 -4 -2 -16 7 -25 21 -9 13 -20 22 -25 20 -4 -3
-16 6 -25 20 -9 14 -22 25 -30 25 -8 0 -19 9 -26 20 -7 11 -19 20 -26 20 -7 0
-15 7 -18 15 -4 8 -10 12 -15 9 -5 -3 -12 2 -15 10 -3 9 -13 16 -20 16 -8 0
-17 7 -20 15 -4 8 -10 12 -15 9 -5 -3 -12 2 -15 10 -3 9 -12 16 -20 16 -8 0
-14 5 -14 11 0 5 -4 8 -8 5 -5 -3 -19 4 -30 15 -12 11 -22 17 -22 14 0 -6 -59
24 -70 35 -3 3 -12 6 -20 7 -8 1 -25 5 -37 9 -15 4 -23 2 -23 -6 0 -7 7 -10
15 -6 8 3 15 2 15 -2 0 -7 48 -31 63 -32 4 0 17 -9 29 -19 11 -11 25 -18 30
-15 4 3 8 0 8 -5 0 -6 6 -11 14 -11 8 0 17 -7 20 -16 10 -25 2 -26 -22 -4 -12
11 -25 20 -29 20 -16 1 -63 25 -63 33 0 5 -5 5 -10 2 -6 -3 -10 -1 -10 4 0 6
-3 10 -7 9 -15 -5 -73 27 -73 39 0 7 -7 13 -16 13 -9 0 -14 -6 -12 -12 6 -17
-11 -33 -45 -42 -34 -8 -34 -3 0 29 29 26 22 32 -19 16 -24 -9 -103 -79 -103
-91 0 -4 -27 -33 -60 -65 -33 -31 -60 -61 -60 -65 0 -5 -27 -34 -60 -65 -33
-32 -60 -61 -60 -67 0 -5 -24 -33 -52 -61 -29 -29 -160 -169 -291 -312 -131
-143 -508 -553 -838 -911 l-601 -650 -129 120 c-71 67 -351 325 -622 575
l-492 454 0 794 0 793 5350 0 5350 0 0 -5350z m-7390 4795 c-7 -9 -15 -13 -17
-11 -6 6 20 36 26 30 2 -2 -2 -10 -9 -19z m150 -5 c0 -6 58 -33 62 -28 2 2 14
-7 27 -19 13 -12 28 -20 33 -17 4 3 8 0 8 -5 0 -6 6 -11 14 -11 8 0 17 -7 20
-16 3 -8 10 -13 15 -10 5 3 11 -1 15 -9 3 -8 12 -15 20 -15 7 0 17 -7 20 -16
3 -8 10 -13 15 -10 5 3 11 -1 15 -9 3 -8 11 -15 18 -15 7 0 19 -9 26 -20 7
-11 18 -20 26 -20 8 0 21 -11 30 -25 9 -14 21 -23 25 -20 5 2 16 -7 25 -20 9
-14 21 -23 25 -21 4 3 23 -13 40 -34 18 -22 36 -38 41 -35 4 3 24 -15 45 -40
20 -25 40 -43 44 -41 4 3 44 -35 90 -85 45 -49 88 -89 95 -89 15 0 68 -54 61
-62 -3 -3 42 -50 100 -105 58 -55 105 -104 105 -108 0 -5 25 -34 56 -64 90
-90 105 -107 99 -113 -3 -3 8 -16 25 -28 16 -12 28 -25 25 -30 -3 -5 8 -18 25
-30 17 -12 28 -25 25 -30 -3 -5 4 -14 15 -20 11 -6 18 -15 15 -20 -3 -5 4 -14
15 -20 11 -6 20 -17 20 -24 0 -8 7 -16 15 -20 8 -3 15 -12 15 -20 0 -7 7 -17
16 -20 8 -3 13 -10 10 -15 -3 -5 1 -12 10 -15 8 -3 13 -10 10 -15 -3 -5 1 -12
10 -15 8 -3 13 -10 10 -15 -3 -5 1 -12 10 -15 8 -3 13 -10 10 -15 -3 -5 1 -12
10 -15 8 -3 12 -10 9 -16 -3 -5 -1 -10 5 -10 6 0 8 -4 5 -10 -3 -5 -3 -10 2
-10 10 0 43 -56 53 -92 8 -25 -9 -46 -227 -285 -252 -275 -401 -438 -498 -541
-33 -36 -65 -70 -70 -76 -6 -6 -139 -150 -295 -321 -156 -170 -300 -328 -321
-350 -21 -22 -64 -67 -96 -101 -300 -314 -1543 -1669 -1543 -1681 0 -7 9 -22
19 -32 19 -19 19 -20 -1 -37 -26 -24 -61 -20 -167 21 -227 87 -633 358 -986
659 -172 146 -488 461 -576 576 -106 136 -159 228 -159 274 0 25 29 71 30 47
0 -8 3 -11 6 -8 4 3 14 2 24 -3 15 -8 268 262 1581 1686 860 932 1582 1715
1603 1739 31 34 45 44 68 42 15 -1 28 -4 28 -7z m244 -15 c3 -8 1 -15 -4 -15
-6 0 -10 7 -10 15 0 8 2 15 4 15 2 0 6 -7 10 -15z m-431 -10 c-3 -9 -8 -14
-10 -11 -3 3 -2 9 2 15 9 16 15 13 8 -4z m467 -21 c0 -8 -4 -12 -10 -9 -5 3
-10 10 -10 16 0 5 5 9 10 9 6 0 10 -7 10 -16z m-86 -19 c3 -8 1 -15 -4 -15 -6
0 -10 7 -10 15 0 8 2 15 4 15 2 0 6 -7 10 -15z m121 -13 c-8 -8 -25 10 -19 20
4 6 9 5 15 -3 4 -7 6 -15 4 -17z m-85 -18 c0 -8 -4 -12 -10 -9 -5 3 -10 10
-10 16 0 5 5 9 10 9 6 0 10 -7 10 -16z m120 0 c0 -8 -4 -12 -10 -9 -5 3 -10
10 -10 16 0 5 5 9 10 9 6 0 10 -7 10 -16z m-609 -13 c-6 -10 -23 -26 -38 -36
-25 -16 -24 -14 7 18 40 42 45 44 31 18z m524 -19 c-8 -8 -25 10 -19 20 4 6 9
5 15 -3 4 -7 6 -15 4 -17z m150 -21 l16 -26 -20 23 c-10 12 -24 22 -30 22 -5
0 -12 4 -15 9 -4 5 3 7 14 4 10 -3 26 -17 35 -32z m-115 3 c0 -8 -4 -12 -10
-9 -5 3 -10 10 -10 16 0 5 5 9 10 9 6 0 10 -7 10 -16z m65 -53 l16 -26 -20 23
c-10 12 -24 22 -30 22 -5 0 -12 4 -15 9 -4 5 3 7 14 4 10 -3 26 -17 35 -32z
m126 -6 c3 0 20 -13 38 -30 18 -16 45 -41 60 -55 15 -14 49 -42 74 -63 26 -21
47 -43 47 -48 0 -11 -190 155 -203 177 -5 8 -12 12 -16 9 -5 -2 -15 3 -22 12
-12 15 -12 16 1 8 8 -6 18 -10 21 -10z m-862 -22 c-29 -39 -53 -63 -63 -63 -5
0 8 18 30 40 41 42 55 51 33 23z m812 -28 c3 0 20 -13 38 -30 18 -16 45 -41
60 -55 15 -14 49 -42 74 -63 26 -21 47 -43 47 -48 0 -11 -190 155 -203 177 -5
8 -12 12 -16 9 -5 -2 -15 3 -22 12 -12 15 -12 16 1 8 8 -6 18 -10 21 -10z
m-941 -118 c0 -2 -12 -14 -26 -28 -25 -22 -26 -23 -15 -2 9 18 19 26 39 32 1
1 2 0 2 -2z m1250 -62 c13 -14 21 -25 18 -25 -2 0 -15 11 -28 25 -13 14 -21
25 -18 25 2 0 15 -11 28 -25z m-50 -50 c13 -14 21 -25 18 -25 -2 0 -15 11 -28
25 -13 14 -21 25 -18 25 2 0 15 -11 28 -25z m-1320 -18 c0 -2 -12 -14 -27 -28
l-28 -24 24 28 c23 25 31 32 31 24z m1500 -52 c13 -14 19 -25 13 -25 -5 0 -20
11 -33 25 -13 14 -19 25 -13 25 5 0 20 -11 33 -25z m-50 -50 c13 -14 19 -25
13 -25 -5 0 -20 11 -33 25 -13 14 -19 25 -13 25 5 0 20 -11 33 -25z m110 -10
c13 -14 19 -25 13 -25 -5 0 -20 11 -33 25 -13 14 -19 25 -13 25 5 0 20 -11 33
-25z m-1680 -18 c0 -2 -12 -14 -27 -28 l-28 -24 24 28 c23 25 31 32 31 24z
m1630 -32 c13 -14 19 -25 13 -25 -5 0 -20 11 -33 25 -13 14 -19 25 -13 25 5 0
20 -11 33 -25z m225 -135 c27 -27 44 -50 39 -50 -6 0 -30 23 -53 50 -23 28
-41 50 -39 50 2 0 26 -22 53 -50z m-1975 37 c0 -2 -12 -14 -27 -28 l-28 -24
24 28 c23 25 31 32 31 24z m1925 -87 c27 -27 44 -50 39 -50 -6 0 -30 23 -53
50 -23 28 -41 50 -39 50 2 0 26 -22 53 -50z m-2035 -33 c0 -2 -12 -14 -27 -28
l-28 -24 24 28 c23 25 31 32 31 24z m2198 -52 c-3 -3 -9 2 -12 12 -6 14 -5 15
5 6 7 -7 10 -15 7 -18z m-50 -50 c-3 -3 -9 2 -12 12 -6 14 -5 15 5 6 7 -7 10
-15 7 -18z m138 -44 c6 -12 21 -29 32 -36 19 -14 39 -61 21 -49 -5 3 -9 11 -9
18 0 8 -11 21 -25 30 -14 9 -25 22 -25 28 0 7 -12 23 -27 36 -26 23 -26 23 -3
10 14 -9 30 -25 36 -37z m-2406 16 c0 -2 -12 -14 -27 -28 l-28 -24 24 28 c23
25 31 32 31 24z m2356 -66 c6 -12 21 -29 32 -36 19 -14 39 -61 21 -49 -5 3 -9
11 -9 18 0 8 -11 21 -25 30 -14 9 -25 22 -25 28 0 7 -12 23 -27 36 -26 23 -26
23 -3 10 14 -9 30 -25 36 -37z m-4664 -23 c100 -95 183 -172 262 -243 42 -38
101 -92 130 -120 29 -27 88 -81 131 -120 42 -38 99 -90 125 -115 64 -60 161
-150 254 -235 42 -38 101 -92 130 -120 29 -27 72 -67 94 -89 38 -35 55 -63 33
-54 -5 2 -281 255 -615 563 -513 474 -628 585 -603 585 2 0 28 -24 59 -52z
m4814 -45 c-10 -11 -19 -7 -22 10 -2 15 0 16 12 6 8 -6 12 -14 10 -16z m-2626
4 c0 -2 -12 -14 -27 -28 l-28 -24 24 28 c23 25 31 32 31 24z m2568 -52 c-3 -3
-9 2 -12 12 -6 14 -5 15 5 6 7 -7 10 -15 7 -18z m87 16 c3 -5 1 -12 -5 -16 -5
-3 -10 1 -10 9 0 18 6 21 15 7z m35 -52 c0 -5 -4 -9 -10 -9 -5 0 -10 7 -10 16
0 8 5 12 10 9 6 -3 10 -10 10 -16z m30 -39 c0 -5 -7 -7 -15 -4 -8 4 -12 10 -9
15 6 11 24 2 24 -11z m-2840 -3 c0 -2 -12 -14 -27 -28 l-28 -24 24 28 c23 25
31 32 31 24z m2865 -27 c8 -13 -5 -13 -25 0 -13 8 -13 10 2 10 9 0 20 -4 23
-10z m20 -30 c8 -13 -5 -13 -25 0 -13 8 -13 10 2 10 9 0 20 -4 23 -10z m20
-30 c8 -13 -5 -13 -25 0 -13 8 -13 10 2 10 9 0 20 -4 23 -10z m-3025 -43 c0
-2 -12 -14 -27 -28 l-28 -24 24 28 c23 25 31 32 31 24z m-120 -130 c0 -2 -12
-14 -27 -28 l-28 -24 24 28 c23 25 31 32 31 24z m-120 -130 c0 -2 -12 -14 -27
-28 l-28 -24 24 28 c23 25 31 32 31 24z m3270 -110 c0 -2 -12 -14 -27 -28
l-28 -24 24 28 c23 25 31 32 31 24z m-3390 -20 c0 -2 -12 -14 -27 -28 l-28
-24 24 28 c23 25 31 32 31 24z m3270 -110 c0 -2 -12 -14 -27 -28 l-28 -24 24
28 c23 25 31 32 31 24z m-3390 -20 c0 -2 -12 -14 -27 -28 l-28 -24 24 28 c23
25 31 32 31 24z m3280 -100 c0 -2 -12 -14 -27 -28 l-28 -24 24 28 c23 25 31
32 31 24z m-3390 -20 c0 -2 -12 -14 -27 -28 l-28 -24 24 28 c23 25 31 32 31
24z m3270 -110 c0 -2 -12 -14 -27 -28 l-28 -24 24 28 c23 25 31 32 31 24z
m-120 -130 c0 -2 -12 -14 -27 -28 l-28 -24 24 28 c23 25 31 32 31 24z m-120
-130 c0 -2 -12 -14 -27 -28 l-28 -24 24 28 c23 25 31 32 31 24z m-120 -130 c0
-2 -12 -14 -27 -28 l-28 -24 24 28 c23 25 31 32 31 24z m-120 -130 c0 -2 -12
-14 -27 -28 l-28 -24 24 28 c23 25 31 32 31 24z m-120 -130 c0 -2 -12 -14 -27
-28 l-28 -24 24 28 c23 25 31 32 31 24z m-120 -130 c0 -2 -12 -14 -27 -28
l-28 -24 24 28 c23 25 31 32 31 24z m-120 -130 c0 -2 -12 -14 -27 -28 l-28
-24 24 28 c23 25 31 32 31 24z m-110 -120 c0 -2 -12 -14 -27 -28 l-28 -24 24
28 c23 25 31 32 31 24z m-120 -130 c0 -2 -12 -14 -27 -28 l-28 -24 24 28 c23
25 31 32 31 24z m-120 -130 c0 -2 -12 -14 -27 -28 l-28 -24 24 28 c23 25 31
32 31 24z m-120 -130 c0 -2 -12 -14 -27 -28 l-28 -24 24 28 c23 25 31 32 31
24z m-120 -130 c0 -2 -12 -14 -27 -28 l-28 -24 24 28 c23 25 31 32 31 24z
m-120 -130 c0 -2 -10 -12 -22 -23 l-23 -19 19 23 c18 21 26 27 26 19z m1154
-126 c9 -7 14 -17 11 -21 -7 -11 -42 -1 -55 15 -9 11 -15 10 -30 -5 -23 -23
-50 -17 -43 9 4 14 14 18 53 17 26 -1 55 -8 64 -15z m-4278 -40 c-1 -22 1 -38
5 -35 4 2 10 0 14 -6 3 -5 11 -10 17 -10 5 0 0 9 -13 20 -23 18 -23 19 -4 20
11 0 26 -9 33 -20 7 -11 17 -20 23 -20 5 0 7 5 3 12 -4 6 5 3 19 -8 14 -10 33
-34 42 -51 9 -18 18 -33 21 -33 3 0 2 5 -1 10 -3 6 -3 10 2 10 4 0 14 -13 21
-30 8 -16 18 -30 23 -30 6 0 7 5 4 10 -11 17 47 3 64 -16 14 -14 13 -14 -11 1
-34 21 -37 11 -5 -15 14 -11 26 -15 33 -9 7 5 11 3 11 -6 0 -8 -4 -12 -9 -9
-4 3 -8 1 -8 -4 0 -6 7 -13 16 -16 8 -3 13 -9 11 -14 -9 -13 17 -38 41 -39 12
-1 20 3 17 8 -4 5 8 1 26 -8 17 -10 31 -22 30 -27 -1 -4 6 -14 16 -22 10 -7
13 -14 6 -14 -12 0 -28 18 -28 34 0 5 -8 10 -17 12 -10 1 -18 -2 -18 -7 0 -6
-5 -7 -12 -3 -7 4 -8 3 -4 -5 4 -6 12 -9 18 -5 5 3 22 -6 38 -21 15 -15 32
-28 37 -28 4 -1 7 -5 6 -8 -1 -3 5 -6 12 -6 11 0 12 4 4 14 -7 7 -7 13 -2 13
13 0 44 -34 47 -52 4 -22 26 -58 37 -58 5 0 1 10 -10 22 -11 11 -18 26 -14 31
3 6 12 2 20 -9 7 -10 20 -27 28 -37 17 -20 20 -31 5 -22 -6 4 -7 -1 -3 -11 4
-11 8 -13 11 -6 6 20 29 14 46 -13 9 -14 21 -23 26 -20 6 3 7 0 5 -7 -4 -9 2
-14 15 -15 11 -1 20 3 20 8 0 6 5 7 11 3 8 -4 7 -9 -2 -14 -10 -7 -10 -12 -1
-23 7 -7 9 -17 5 -21 -4 -4 0 -4 9 -1 10 4 22 -2 32 -17 9 -12 16 -17 16 -10
0 7 5 10 10 7 6 -4 8 -10 5 -15 -3 -5 -1 -12 5 -15 8 -5 7 -12 -2 -23 -11 -13
-11 -14 2 -7 19 11 51 14 44 4 -5 -8 58 -70 73 -71 4 -1 16 -14 25 -29 10 -16
20 -29 23 -29 4 0 4 4 1 9 -9 14 23 6 37 -9 10 -12 9 -12 -4 -2 -14 10 -18 10
-22 -3 -4 -8 -1 -14 6 -12 7 1 11 -4 9 -11 -1 -8 2 -11 8 -7 5 3 18 1 27 -4
10 -6 14 -11 10 -11 -5 0 -5 -5 -1 -11 4 -8 9 -7 15 2 7 11 9 10 9 -4 0 -11 4
-15 12 -11 6 4 8 3 5 -3 -4 -6 -1 -16 7 -22 11 -9 15 -9 20 1 5 10 7 10 12 0
3 -6 11 -9 16 -6 7 4 8 2 4 -4 -4 -8 0 -12 10 -12 14 0 15 -3 6 -12 -8 -8 -15
-8 -27 2 -27 23 -16 5 16 -26 29 -26 30 -27 19 -5 -12 23 -11 23 24 -4 20 -15
36 -30 36 -32 0 -3 -7 0 -15 7 -22 18 -18 -4 4 -24 15 -13 20 -14 24 -4 3 7 6
3 6 -10 1 -20 4 -21 21 -12 16 9 20 8 20 -5 0 -10 -5 -13 -12 -9 -7 4 -6 -1 3
-10 9 -9 25 -18 37 -19 22 -1 26 -8 23 -37 -1 -10 1 -11 6 -3 6 7 20 0 48 -24
22 -19 34 -32 26 -28 -9 5 -12 3 -9 -6 5 -14 58 -32 67 -23 4 3 -5 14 -18 25
-13 10 -19 19 -14 19 5 0 22 -14 39 -31 22 -23 24 -28 9 -23 -17 7 -17 5 4
-25 13 -18 26 -30 29 -27 7 7 32 -13 32 -26 0 -6 -8 -7 -17 -3 -12 4 -15 3 -8
-4 6 -6 19 -12 30 -14 11 -1 26 -6 34 -11 9 -6 12 -5 9 5 -3 8 -13 13 -22 12
-10 0 -15 2 -12 5 3 3 1 11 -5 19 -6 7 -7 13 -2 13 15 0 56 -48 49 -58 -3 -5
4 -18 15 -28 15 -14 22 -15 28 -6 6 10 11 9 22 -4 9 -12 10 -15 2 -10 -7 4
-13 2 -13 -3 0 -6 9 -11 21 -11 11 0 17 -5 14 -10 -4 -6 -11 -8 -16 -5 -5 3
-6 -1 -3 -10 4 -9 9 -13 12 -11 3 3 12 0 21 -7 14 -11 14 -10 2 6 -19 24 2 22
24 -3 12 -13 14 -20 5 -20 -10 0 -10 -3 -1 -14 7 -8 20 -15 29 -15 23 0 44 -5
60 -15 11 -6 10 -11 -2 -25 -15 -16 -14 -19 9 -39 14 -12 25 -18 25 -13 0 5
-10 16 -22 24 -17 12 -19 16 -7 16 19 1 52 -33 42 -42 -3 -4 1 -7 11 -7 10 0
14 -5 10 -12 -4 -7 -3 -8 4 -4 15 9 114 -84 108 -101 -7 -16 53 -63 71 -56 8
3 21 -4 29 -16 9 -12 20 -18 26 -15 7 4 8 2 4 -4 -3 -6 1 -17 10 -24 9 -7 37
-32 63 -55 39 -34 50 -40 61 -30 12 10 12 9 2 -4 -10 -13 -9 -19 1 -28 8 -6
18 -7 23 -3 4 4 2 -1 -5 -11 -12 -15 -12 -17 3 -11 11 4 22 0 31 -12 8 -11 15
-15 15 -10 0 5 7 3 15 -4 8 -7 13 -16 10 -20 -2 -4 4 -15 14 -24 14 -13 21
-14 27 -5 5 8 3 10 -6 4 -9 -5 -11 -4 -6 4 4 6 12 9 17 5 5 -3 7 -10 3 -15 -3
-5 23 -37 57 -72 34 -34 56 -53 48 -43 -13 18 -13 19 9 7 12 -6 22 -17 22 -24
0 -12 100 -117 112 -117 4 0 28 -22 54 -50 25 -27 51 -47 57 -43 6 3 7 1 3 -5
-4 -7 3 -17 18 -23 14 -7 32 -22 40 -34 8 -11 47 -50 87 -86 41 -35 68 -57 61
-47 -7 9 -9 18 -5 21 4 3 17 -7 27 -21 11 -14 14 -22 8 -18 -17 10 -15 -4 4
-25 9 -10 22 -15 29 -13 7 3 16 0 21 -7 5 -8 3 -10 -7 -4 -8 5 2 -8 23 -28 20
-20 40 -37 45 -37 4 0 1 4 -7 10 -8 5 -11 12 -7 17 10 9 27 -16 21 -32 -3 -6
5 -20 16 -30 12 -11 21 -15 20 -10 -5 22 1 36 11 29 6 -3 8 -17 5 -30 -7 -25
8 -34 17 -11 3 6 6 1 6 -12 1 -15 6 -21 14 -18 17 7 44 -9 34 -20 -5 -4 -12
-1 -17 7 -8 12 -10 12 -10 2 0 -8 9 -16 20 -19 11 -3 18 -9 15 -13 -2 -4 4
-15 15 -25 18 -17 19 -16 14 11 l-4 29 19 -25 c14 -18 16 -27 8 -32 -9 -5 -9
-10 1 -20 9 -9 12 -9 12 3 1 10 3 9 11 -4 6 -9 14 -15 19 -12 10 6 52 -50 43
-58 -8 -9 69 -52 87 -49 12 3 12 1 3 -8 -13 -14 -7 -40 9 -40 6 0 5 7 -2 15
-11 13 -10 14 4 9 9 -3 19 -17 22 -30 3 -13 13 -29 22 -36 10 -8 13 -9 9 -1
-4 6 -3 14 2 18 6 3 19 -12 30 -34 12 -22 26 -43 32 -47 8 -4 9 -3 5 4 -4 7
-3 12 1 12 15 0 32 -22 27 -35 -3 -6 2 -18 11 -25 12 -10 15 -10 15 4 0 26 19
18 26 -11 8 -34 102 -133 127 -133 9 0 17 -5 17 -11 0 -12 109 -129 121 -129
4 0 31 -25 60 -55 44 -47 54 -53 68 -43 9 7 13 9 9 4 -9 -11 10 -48 21 -42 4
3 17 -1 27 -10 18 -14 18 -15 -3 -4 -32 15 -29 5 10 -30 35 -33 52 -38 43 -14
-3 9 -2 12 4 9 6 -4 9 -12 8 -19 -3 -14 101 -126 117 -126 5 0 4 4 -2 8 -10 7
-10 12 1 27 12 17 13 17 12 -6 -1 -13 -5 -30 -9 -36 -5 -9 -2 -13 9 -13 9 0
34 -20 56 -45 22 -25 44 -42 49 -39 5 3 9 2 8 -3 -4 -21 3 -32 22 -38 12 -4
33 -19 47 -34 13 -14 19 -18 12 -9 -9 13 -9 18 -1 18 10 0 15 -13 12 -32 0 -4
12 -16 27 -27 46 -34 73 -65 68 -78 -3 -7 1 -10 9 -6 8 3 12 10 8 16 -3 6 -1
7 6 3 6 -4 9 -11 6 -16 -3 -4 2 -13 10 -20 8 -7 15 -17 15 -23 0 -5 -9 -2 -20
8 -23 20 -28 11 -6 -11 8 -8 21 -11 29 -8 9 3 22 -4 31 -18 9 -12 16 -18 16
-13 0 5 23 -13 50 -40 28 -27 50 -54 50 -60 0 -5 -13 4 -28 20 -32 34 -62 60
-62 53 0 -3 34 -37 76 -76 42 -39 73 -65 70 -57 -13 35 22 8 64 -49 13 -18 13
-19 0 -11 -13 8 -13 7 -1 -8 14 -18 36 -24 26 -7 -10 17 12 11 26 -7 10 -11
10 -14 2 -9 -7 4 -13 2 -13 -3 0 -6 9 -11 21 -11 11 0 17 -5 14 -10 -4 -6 -11
-8 -16 -5 -5 4 -6 -2 -2 -11 4 -11 8 -13 11 -6 6 18 27 14 47 -8 11 -12 13
-20 6 -20 -7 0 -9 -5 -6 -10 4 -6 11 -7 17 -4 6 4 8 2 5 -3 -4 -6 6 -19 21
-28 l27 -18 -20 23 -20 23 23 -12 c12 -6 22 -16 22 -21 0 -6 5 -10 11 -10 5 0
7 5 3 12 -4 7 -3 8 5 4 15 -9 5 -26 -16 -26 -14 0 -14 -3 2 -20 21 -23 44 -28
25 -5 -20 24 5 17 26 -7 18 -21 18 -21 0 -15 -13 5 -17 3 -13 -7 3 -8 3 -17
-1 -19 -4 -2 -2 -3 4 -1 16 3 112 -88 107 -103 -2 -6 1 -14 6 -18 7 -4 8 0 4
11 -5 14 -3 15 15 5 12 -6 26 -20 32 -32 6 -11 14 -17 19 -15 4 3 13 -5 21
-17 12 -20 12 -21 -3 -8 -11 9 -17 10 -17 2 0 -10 5 -12 40 -15 9 -1 14 -9 12
-20 -2 -10 6 -25 17 -33 12 -8 18 -19 15 -25 -5 -7 -2 -8 5 -3 9 5 6 14 -11
33 l-23 25 26 -18 c14 -10 33 -30 44 -44 10 -14 12 -20 5 -14 -8 7 -18 13 -23
13 -17 0 42 -41 61 -43 12 -1 18 -7 15 -17 -2 -9 5 -24 16 -34 12 -11 21 -14
21 -8 0 7 5 12 11 12 6 0 8 -8 4 -19 -4 -12 0 -21 11 -25 14 -5 15 -4 5 8 -9
11 -9 16 1 22 7 4 10 3 5 -1 -4 -5 1 -17 10 -28 10 -11 12 -17 6 -13 -7 4 -13
3 -13 -2 0 -14 29 -36 37 -28 3 3 0 6 -7 6 -7 0 -11 2 -8 5 10 10 37 -6 32
-19 -3 -7 5 -21 16 -31 20 -18 21 -18 14 0 -5 13 -4 16 5 11 7 -5 10 -15 7
-23 -7 -18 12 -45 25 -37 5 3 7 10 4 15 -4 5 -1 9 5 9 7 0 10 -6 7 -12 -4 -13
19 -68 29 -68 3 0 2 5 -1 10 -13 20 8 9 27 -15 10 -13 23 -24 28 -22 4 1 7 -1
6 -5 -2 -11 47 -58 56 -52 5 3 7 1 6 -4 -2 -5 26 -35 61 -68 119 -109 126
-116 127 -125 1 -5 2 -13 3 -18 0 -5 11 -11 23 -13 12 -2 23 -9 26 -17 3 -8 0
-11 -7 -7 -6 4 -11 2 -11 -4 0 -7 6 -10 14 -7 7 3 19 0 25 -6 6 -6 11 -7 11
-3 0 5 9 -3 20 -17 11 -14 20 -32 20 -40 0 -7 9 -22 20 -32 22 -20 28 -8 8 15
-7 8 -3 6 10 -5 12 -10 19 -21 15 -24 -10 -8 -10 -37 0 -47 4 -4 7 -2 7 5 0 7
5 9 11 6 6 -4 8 -14 5 -22 -5 -11 -1 -14 12 -11 10 3 27 -1 36 -8 10 -7 24
-10 31 -8 7 3 16 0 21 -7 5 -8 2 -11 -8 -6 -9 3 -21 0 -28 -6 -8 -7 -10 -7 -7
-1 3 6 0 11 -7 11 -8 0 -12 -6 -9 -14 3 -7 10 -13 17 -12 27 3 38 -2 33 -15
-8 -19 12 -34 42 -31 22 2 22 1 7 -11 -17 -12 -16 -13 3 -24 12 -6 21 -7 21
-3 0 3 13 -6 30 -22 26 -25 33 -54 9 -39 -5 3 -6 10 -3 16 5 7 2 8 -6 3 -9 -6
-11 -4 -5 5 5 9 4 11 -4 6 -6 -4 -9 -12 -6 -17 15 -24 -14 -4 -53 36 -24 25
-51 45 -60 45 -11 0 -4 -8 16 -20 21 -13 30 -25 26 -33 -4 -6 -4 -9 1 -5 5 5
25 -10 47 -31 21 -22 38 -34 38 -27 0 6 9 12 20 12 11 0 20 -7 20 -14 0 -8 -6
-12 -15 -8 -22 8 -18 -7 5 -22 12 -7 18 -18 14 -24 -4 -6 -3 -9 2 -6 5 3 19
-5 32 -18 l23 -24 -3321 0 -3320 0 0 3083 c0 1696 3 3087 7 3090 10 11 11 9 9
-32z m4353 -27 c12 -14 21 -28 19 -30 -2 -2 -16 10 -30 26 -14 17 -23 30 -19
30 4 0 18 -12 30 -26z m-58 -55 c24 -22 64 -59 89 -82 25 -23 101 -94 169
-157 67 -63 135 -126 150 -140 15 -14 61 -56 102 -95 41 -38 126 -117 188
-175 63 -58 128 -118 146 -135 130 -125 310 -291 319 -296 11 -5 40 -33 298
-282 115 -111 149 -154 48 -62 -145 134 -192 178 -268 250 -94 90 -108 100
-117 85 -4 -6 -2 -9 2 -8 5 2 39 -26 76 -62 36 -36 109 -105 162 -155 53 -49
136 -128 183 -174 48 -46 107 -100 132 -120 25 -20 50 -40 56 -46 6 -5 40 -35
74 -65 35 -30 71 -62 81 -72 10 -9 20 -14 22 -11 3 2 8 -5 12 -16 3 -12 10
-19 15 -16 15 10 23 -44 9 -61 -7 -9 -15 -11 -18 -5 -4 6 -12 6 -21 1 -11 -7
-11 -10 -2 -10 10 0 10 -5 2 -20 -6 -11 -18 -20 -27 -20 -9 0 -13 -3 -9 -7 3
-4 -4 -13 -16 -20 -13 -7 -17 -12 -10 -13 7 0 -2 -17 -20 -37 -97 -109 -301
-329 -377 -405 -47 -48 -113 -117 -146 -153 -33 -36 -87 -92 -119 -125 -33
-33 -56 -60 -53 -60 4 0 -11 -19 -34 -42 -22 -24 -86 -95 -142 -158 -56 -63
-139 -153 -185 -200 -45 -47 -83 -87 -85 -90 -1 -3 -5 -4 -9 -3 -5 2 -7 -1 -5
-6 1 -5 -24 -35 -56 -66 -46 -46 -61 -55 -68 -44 -6 10 -8 7 -6 -11 3 -16 10
-25 22 -25 27 0 26 -31 -1 -44 -19 -8 -24 -8 -24 4 0 19 -10 19 -40 -2 -17
-12 -25 -13 -28 -5 -2 7 -8 10 -13 6 -5 -3 -9 -1 -9 4 0 10 -30 10 -46 -1 -10
-6 -432 26 -502 38 -18 3 -46 18 -63 33 -30 27 -553 587 -843 902 -33 36 -85
92 -116 125 -31 33 -168 182 -305 330 -136 149 -269 291 -294 318 -38 39 -44
50 -35 65 6 9 20 17 31 18 11 1 25 4 32 8 6 4 11 2 11 -3 0 -20 19 -11 54 24
40 39 66 47 42 13 -30 -42 -16 -41 29 3 25 24 45 47 45 51 0 4 27 33 60 64 32
31 58 60 57 63 -1 3 25 32 58 64 33 32 60 61 60 66 0 5 29 36 65 70 36 33 62
61 58 61 -3 0 21 27 55 61 34 33 62 64 62 68 0 4 27 34 60 67 33 33 87 90 120
127 33 37 87 95 120 130 33 35 89 96 125 136 36 39 89 95 118 124 28 29 52 55
52 59 0 3 27 32 60 64 32 32 58 60 56 62 -2 2 24 31 58 65 33 34 91 94 129
134 l67 71 21 -29 c11 -16 23 -28 27 -26 4 1 37 -27 73 -63 36 -36 114 -110
173 -165 59 -55 122 -113 140 -130 17 -16 68 -63 111 -104 201 -185 269 -249
310 -288 39 -38 65 -53 65 -38 0 4 -64 66 -199 191 -35 32 -83 77 -106 99 -23
22 -68 65 -101 94 -62 57 -121 113 -343 320 -73 69 -140 130 -149 138 -9 7
-12 13 -6 13 7 0 31 -18 55 -41z m-4090 -26 c29 -30 30 -33 7 -17 -15 10 -28
23 -28 27 0 5 -4 6 -8 3 -5 -3 -9 1 -9 9 0 8 1 15 2 15 0 0 17 -16 36 -37z
m4230 10 l24 -26 -27 19 c-15 10 -28 22 -28 27 0 12 5 8 31 -20z m-4231 -43
c0 -5 -2 -10 -4 -10 -3 0 -8 5 -11 10 -3 6 -1 10 4 10 6 0 11 -4 11 -10z
m4318 -41 l14 -24 -18 22 c-11 12 -28 30 -39 39 -19 15 -19 16 4 2 14 -8 31
-25 39 -39z m482 31 c0 -5 -7 -10 -15 -10 -8 0 -15 -4 -15 -8 0 -12 -50 -33
-61 -26 -13 8 10 29 46 42 39 14 45 14 45 2z m72 -10 c17 -10 33 -26 34 -35 1
-8 -2 -13 -7 -9 -5 3 -6 10 -3 16 5 7 -1 9 -16 5 -15 -4 -32 1 -47 13 -21 17
-21 20 4 29 2 1 17 -8 35 -19z m-1162 -75 c-7 -8 -16 -15 -21 -15 -5 0 -1 8 9
18 20 22 31 19 12 -3z m675 5 c16 -17 16 -20 3 -15 -9 4 -19 13 -22 21 -7 19
-2 18 19 -6z m562 -20 c1 -11 -2 -20 -7 -20 -6 0 -10 7 -10 15 0 8 -4 15 -10
15 -5 0 -7 7 -3 16 7 19 25 4 30 -26z m-153 9 c-31 -12 -40 -9 -20 6 10 8 24
11 29 8 6 -4 2 -10 -9 -14z m-4629 -9 c4 -6 -1 -7 -11 -3 -11 4 -15 3 -10 -5
10 -17 -10 -24 -23 -8 -10 11 -8 15 6 19 29 8 32 7 38 -3z m4886 -9 c-21 -19
-51 -19 -51 -1 0 11 19 18 49 19 l24 1 -22 -19z m-314 -18 c-10 -22 -13 -24
-15 -9 -2 10 2 22 10 27 19 12 19 12 5 -18z m108 -12 c0 -6 6 -16 14 -20 7 -5
11 -13 7 -19 -3 -6 -1 -12 6 -14 7 -3 9 -11 3 -24 -4 -10 -7 -25 -6 -32 1 -8
-4 -21 -11 -29 -7 -9 -13 -21 -14 -27 0 -6 -2 -16 -2 -23 -1 -7 -9 -10 -19 -6
-12 5 -14 3 -8 -7 5 -9 4 -11 -3 -6 -7 4 -12 14 -12 21 0 8 -9 19 -21 25 -11
7 -18 14 -15 17 3 3 -2 12 -10 20 -8 9 -13 22 -10 29 3 8 1 14 -4 14 -6 0 -10
-11 -10 -25 0 -14 4 -25 8 -25 4 0 8 -9 8 -20 0 -11 -3 -16 -7 -12 -12 12 -28
82 -19 82 4 0 11 16 14 35 4 19 12 35 18 35 6 0 9 3 5 6 -7 7 12 28 33 36 18
7 55 -15 55 -31z m-1085 4 c-7 -8 -16 -15 -21 -15 -5 0 -1 8 9 18 20 22 31 19
12 -3z m1130 4 c0 -5 -7 -9 -15 -9 -9 0 -12 6 -9 15 6 15 24 11 24 -6z m-420
-24 c11 -13 10 -14 -4 -9 -9 3 -16 10 -16 15 0 13 6 11 20 -6z m910 -1 c0 -8
-5 -12 -10 -9 -6 4 -8 11 -5 16 9 14 15 11 15 -7z m40 -31 c0 -13 -3 -13 -15
-3 -8 7 -12 16 -9 21 8 13 24 1 24 -18z m-85 -28 c17 -13 35 -29 42 -35 7 -5
17 -10 22 -10 6 0 15 -9 21 -20 6 -11 15 -18 21 -15 5 4 9 1 9 -5 0 -10 30
-46 94 -111 27 -28 29 -34 32 -137 l3 -107 -19 65 c-10 36 -22 78 -25 93 -3
15 -10 25 -15 22 -6 -3 -10 -2 -10 4 0 6 -7 8 -15 5 -21 -9 -19 -19 9 -33 19
-11 25 -24 30 -75 3 -33 13 -82 20 -108 8 -25 12 -49 9 -51 -9 -9 -33 4 -33
18 0 8 -5 17 -10 20 -12 8 -3 -43 11 -61 5 -6 6 -14 2 -17 -3 -4 -1 -7 5 -7
23 0 11 -18 -30 -46 -24 -16 -47 -35 -51 -41 -4 -7 -16 -13 -25 -12 -14 0 -13
2 3 9 19 8 19 9 -2 9 -14 1 -23 -5 -23 -14 0 -8 -4 -15 -9 -15 -12 0 -32 26
-25 32 6 6 -23 16 -129 43 -56 14 -71 23 -80 44 -16 36 -95 115 -137 137 -63
34 -77 48 -84 87 -4 20 -11 37 -16 37 -5 0 -7 7 -4 15 4 8 1 15 -6 15 -6 0 -8
4 -5 10 8 13 -23 72 -35 65 -5 -3 -12 0 -16 6 -4 7 -3 9 4 5 7 -4 9 6 6 31 -2
21 -1 32 2 24 5 -9 11 -3 22 20 8 19 16 40 18 48 1 7 7 18 13 24 10 10 17 9
115 -20 11 -3 16 -1 12 5 -3 6 -20 13 -36 17 -63 14 -27 25 68 20 92 -4 95 -4
52 9 -80 23 -77 24 45 25 114 1 122 0 150 -24z m115 9 c0 -8 -5 -12 -10 -9 -6
4 -8 11 -5 16 9 14 15 11 15 -7z m-1865 -14 c-10 -11 -22 -20 -28 -20 -5 0 1
9 14 20 31 25 37 25 14 0z m1392 -2 c-3 -8 -6 -5 -6 6 -1 11 2 17 5 13 3 -3 4
-12 1 -19z m-427 -3 c11 -13 10 -14 -4 -9 -9 3 -16 10 -16 15 0 13 6 11 20 -6z
m940 -15 c0 -5 -2 -10 -4 -10 -3 0 -8 5 -11 10 -3 6 -1 10 4 10 6 0 11 -4 11
-10z m-1855 -30 c-10 -11 -22 -20 -28 -20 -5 0 1 9 14 20 31 25 37 25 14 0z
m1971 -90 c13 -14 24 -29 24 -33 0 -4 -16 9 -35 30 -19 21 -46 49 -59 63 -12
14 -27 32 -31 40 -4 8 11 -5 34 -30 23 -25 53 -56 67 -70z m-976 65 c20 -24 6
-28 -15 -5 -10 11 -13 20 -8 20 6 0 16 -7 23 -15z m137 -40 c0 -8 -4 -12 -9
-9 -5 3 -6 10 -3 15 9 13 12 11 12 -6z m-1247 -60 c-7 -9 -15 -13 -17 -11 -6
6 20 36 26 30 2 -2 -2 -10 -9 -19z m-110 -118 c0 -2 -15 -16 -32 -33 -27 -24
-29 -25 -13 -4 24 30 45 47 45 37z m-130 -142 c-7 -8 -18 -15 -24 -15 -6 0 -2
7 8 15 25 19 32 19 16 0z m1755 -15 c10 -11 13 -20 7 -20 -6 0 -16 9 -22 20
-6 11 -9 20 -7 20 2 0 12 -9 22 -20z m545 -84 c0 -3 -4 -8 -10 -11 -5 -3 -10
-1 -10 4 0 6 5 11 10 11 6 0 10 -2 10 -4z m-2410 -19 c0 -2 -12 -14 -27 -28
-20 -18 -24 -19 -13 -4 18 24 40 42 40 32z m2534 -13 c3 -8 10 -13 15 -10 5 3
11 0 14 -7 4 -10 -3 -12 -24 -9 -16 2 -29 9 -29 14 0 5 -4 6 -10 3 -11 -7 -14
8 -3 18 11 12 31 7 37 -9z m53 -46 c-3 -8 -6 -5 -6 6 -1 11 2 17 5 13 3 -3 4
-12 1 -19z m-4726 -5 c13 -16 12 -17 -3 -4 -10 7 -18 15 -18 17 0 8 8 3 21
-13z m2043 -35 c-30 -37 -63 -68 -70 -68 -7 0 78 90 85 90 2 0 -4 -10 -15 -22z
m2610 13 c3 -4 -6 -6 -19 -3 -14 2 -25 6 -25 8 0 8 39 4 44 -5z m-34 -23 c11
-12 20 -18 20 -12 0 16 20 -20 20 -37 0 -9 -18 -29 -41 -43 -34 -23 -47 -26
-81 -21 -22 4 -48 15 -58 25 -10 10 -21 16 -24 13 -3 -3 -8 2 -12 11 -3 9 -10
13 -15 10 -5 -3 -9 -1 -9 5 0 16 30 41 58 47 15 3 36 9 47 14 36 15 74 11 95
-12z m-4555 2 c3 -6 -1 -7 -9 -4 -18 7 -21 14 -7 14 6 0 13 -4 16 -10z m4599
-104 c-9 -14 -23 -26 -31 -26 -11 0 -7 7 11 21 15 12 27 31 27 47 2 23 2 24 6
5 2 -12 -3 -33 -13 -47z m-4476 -21 c-3 -3 -9 2 -12 12 -6 14 -5 15 5 6 7 -7
10 -15 7 -18z m4357 -6 c13 -6 6 -7 -20 -3 -22 4 -47 11 -55 16 -18 11 44 0
75 -13z m-2660 -39 c-16 -16 -31 -28 -33 -25 -4 4 48 54 57 55 3 0 -8 -13 -24
-30z m-1565 -72 c0 -7 -4 -7 -13 1 -8 6 -16 9 -19 6 -2 -3 -5 2 -5 9 0 11 5
13 19 5 10 -5 18 -15 18 -21z m1479 -15 c-29 -39 -53 -63 -62 -63 -5 0 8 18
29 40 41 42 55 52 33 23z m2776 -71 c-6 -6 -45 33 -45 44 0 4 11 -3 25 -16 14
-13 23 -26 20 -28z m-2901 -64 c-13 -23 -47 -58 -57 -58 -5 0 6 16 25 35 35
37 43 42 32 23z m2977 -5 c13 -16 12 -17 -3 -4 -10 7 -18 15 -18 17 0 8 8 3
21 -13z m64 -61 c-5 -5 -45 36 -45 46 0 3 11 -5 25 -18 14 -13 23 -26 20 -28z
m40 -32 c10 -11 16 -20 13 -20 -3 0 -13 9 -23 20 -10 11 -16 20 -13 20 3 0 13
-9 23 -20z m-3216 -59 c-13 -16 -31 -32 -39 -36 -8 -3 -12 -4 -10 -1 61 71 96
97 49 37z m3305 -20 c28 -31 14 -25 -25 10 -19 17 -25 26 -14 21 11 -6 29 -20
39 -31z m136 -126 c13 -14 22 -27 19 -29 -2 -1 -16 10 -31 25 -15 16 -24 29
-19 29 4 0 18 -11 31 -25z m-4151 -8 c21 -29 8 -29 -24 -1 -25 21 -26 25 -10
22 11 -1 26 -11 34 -21z m4311 -157 c0 -5 -5 -12 -10 -15 -8 -5 -7 -11 1 -21
10 -12 8 -19 -8 -36 l-21 -20 0 61 c0 56 1 60 19 50 10 -5 19 -14 19 -19z
m-70 -133 c0 -2 -12 -14 -27 -28 l-28 -24 24 28 c23 25 31 32 31 24z m-3810
-82 c7 -8 8 -15 2 -15 -5 0 -15 7 -22 15 -7 8 -8 15 -2 15 5 0 15 -7 22 -15z
m3690 -48 c0 -2 -12 -14 -27 -28 l-28 -24 24 28 c23 25 31 32 31 24z m-3560
-67 c0 -5 -2 -10 -4 -10 -3 0 -8 5 -11 10 -3 6 -1 10 4 10 6 0 11 -4 11 -10z
m50 -45 c7 -9 8 -15 2 -15 -5 0 -12 7 -16 15 -3 8 -4 15 -2 15 2 0 9 -7 16
-15z m3390 -18 c0 -2 -12 -14 -27 -28 l-28 -24 24 28 c23 25 31 32 31 24z
m-3320 -47 c6 -11 8 -20 6 -20 -3 0 -10 9 -16 20 -6 11 -8 20 -6 20 3 0 10 -9
16 -20z m70 -73 c0 -5 -4 -5 -10 -2 -5 3 -10 14 -10 23 0 15 2 15 10 2 5 -8
10 -19 10 -23z m3130 -10 c0 -2 -12 -14 -27 -28 l-28 -24 24 28 c23 25 31 32
31 24z m-3084 -26 c-3 -5 1 -11 9 -15 8 -3 15 -11 15 -17 0 -7 -8 -5 -20 6
-17 15 -19 35 -4 35 3 0 3 -4 0 -9z m61 -46 c0 -8 -4 -12 -9 -9 -5 3 -6 10 -3
15 9 13 12 11 12 -6z m28 -35 c3 -6 -1 -7 -9 -4 -18 7 -21 14 -7 14 6 0 13 -4
16 -10z m3023 -47 c33 -32 93 -87 132 -123 39 -36 95 -87 125 -115 29 -27 88
-81 130 -120 42 -38 100 -92 130 -120 156 -148 182 -172 210 -192 21 -15 27
-25 20 -32 -8 -8 -134 103 -418 365 -224 206 -407 379 -407 385 0 19 20 7 78
-48z m-2928 -49 c0 -8 -5 -12 -10 -9 -6 4 -8 11 -5 16 9 14 15 11 15 -7z m198
-149 c-3 -3 -9 2 -12 12 -6 14 -5 15 5 6 7 -7 10 -15 7 -18z m218 -232 c-7 -7
-26 7 -26 19 0 6 6 6 15 -2 9 -7 13 -15 11 -17z m4154 -213 c0 -5 -4 -10 -10
-10 -5 0 -10 5 -10 10 0 6 5 10 10 10 6 0 10 -4 10 -10z m-3860 -20 c0 -5 -2
-10 -4 -10 -3 0 -8 5 -11 10 -3 6 -1 10 4 10 6 0 11 -4 11 -10z m3749 -59 c41
-11 78 -18 82 -15 5 3 9 0 9 -6 0 -7 6 -10 13 -7 6 2 30 -6 52 -18 22 -13 51
-26 65 -30 59 -18 222 -106 277 -150 41 -33 216 -205 209 -205 -2 0 19 -40 49
-88 29 -49 56 -100 59 -113 4 -13 11 -33 16 -44 29 -64 81 -255 95 -350 21
-137 15 -228 -26 -390 -17 -66 -35 -137 -40 -158 -14 -57 -106 -235 -154 -297
-24 -31 -74 -82 -111 -115 -38 -33 -72 -63 -75 -68 -3 -4 -20 -16 -36 -25 -17
-9 -55 -30 -85 -47 -48 -27 -251 -90 -373 -115 -92 -20 -270 -15 -368 9 -49
13 -91 20 -94 17 -6 -6 -97 27 -179 65 -34 16 -67 29 -72 29 -6 0 -16 8 -21
18 -6 9 -11 13 -11 9 0 -18 -153 99 -217 167 -82 87 -133 148 -133 160 0 5 -8
16 -18 25 -11 9 -22 29 -26 46 -4 16 -11 32 -15 35 -14 10 -91 176 -91 197 0
11 -7 40 -15 63 -8 23 -12 46 -9 51 3 5 1 9 -4 9 -4 0 -14 39 -21 88 -7 48
-15 101 -18 117 -7 40 -7 47 0 145 4 47 13 109 21 138 8 28 12 52 9 52 -3 0 0
7 7 15 6 8 9 19 6 24 -4 5 -2 12 3 15 5 3 12 22 16 43 4 20 18 59 31 85 13 26
35 76 47 110 29 78 123 204 208 278 74 64 129 105 129 94 0 -4 8 -1 18 7 33
27 65 41 210 90 230 78 401 90 581 40z m-3725 3 c7 -19 2 -18 -19 6 -16 17
-16 20 -3 15 9 -4 19 -13 22 -21z m60 -49 c3 -9 0 -15 -8 -15 -7 0 -13 7 -13
15 0 8 4 15 8 15 4 0 9 -7 13 -15z m4141 -45 c3 -5 1 -10 -4 -10 -6 0 -11 5
-11 10 0 6 2 10 4 10 3 0 8 -4 11 -10z m-4065 -43 c0 -16 -18 3 -23 25 -6 22
-5 22 8 4 8 -11 15 -24 15 -29z m4105 14 c3 -5 1 -12 -5 -16 -5 -3 -10 1 -10
9 0 18 6 21 15 7z m-4047 -53 c11 -14 10 -16 -8 -11 -11 3 -23 10 -27 16 -3 6
-1 7 5 3 7 -4 12 -2 12 5 0 7 1 10 3 8 1 -2 8 -12 15 -21z m4092 18 c0 -11
-19 -15 -25 -6 -3 5 1 10 9 10 9 0 16 -2 16 -4z m50 -54 c0 -1 -9 2 -20 8 -11
6 -20 15 -20 20 0 6 9 2 20 -7 11 -10 20 -19 20 -21z m-4084 -19 c20 -27 16
-38 -6 -18 -20 18 -26 35 -14 35 4 0 13 -8 20 -17z m50 -38 c-1 -8 -5 -17 -8
-21 -5 -4 -4 16 1 34 3 9 9 -1 7 -13z m4144 -58 c0 -6 -16 7 -35 27 -19 21
-35 40 -35 44 0 3 16 -9 35 -28 19 -19 35 -38 35 -43z m-3620 -437 c0 -5 -5
-10 -11 -10 -5 0 -7 5 -4 10 3 6 8 10 11 10 2 0 4 -4 4 -10z m300 -313 c0 -6
-9 -2 -20 8 -11 10 -20 23 -20 28 0 6 9 2 20 -8 11 -10 20 -23 20 -28z m385
-355 c-7 -8 -35 7 -35 18 0 6 7 6 20 -2 10 -7 17 -14 15 -16z m50 -43 c11 -17
-1 -21 -15 -4 -8 9 -8 15 -2 15 6 0 14 -5 17 -11z m85 -75 c0 -2 -9 0 -20 6
-11 6 -20 13 -20 16 0 2 9 0 20 -6 11 -6 20 -13 20 -16z m3124 -106 c55 -54
125 -120 260 -243 42 -38 101 -92 130 -120 29 -27 87 -81 130 -120 42 -38 101
-92 130 -120 29 -27 88 -81 130 -120 42 -38 101 -92 131 -120 29 -27 86 -79
125 -115 40 -36 101 -93 137 -127 37 -35 69 -63 73 -63 4 0 15 -12 25 -26 14
-21 14 -25 2 -22 -23 5 -1347 1229 -1341 1239 8 14 11 12 68 -43z m-2258 3
c-3 -4 1 -17 9 -27 8 -10 14 -23 15 -29 0 -5 -9 3 -19 19 -18 26 -19 46 -5 46
3 0 3 -4 0 -9z m40 -87 c-3 -8 0 -14 7 -14 7 0 38 -32 70 -70 33 -39 63 -70
68 -70 5 0 8 -5 7 -12 -2 -7 4 -12 12 -13 8 0 14 -6 13 -13 -2 -7 3 -12 11
-12 8 0 37 -27 65 -59 28 -33 74 -76 101 -97 83 -63 56 -59 -42 7 -83 56 -166
130 -223 199 -63 76 -86 111 -79 121 4 7 3 9 -3 6 -6 -4 -18 3 -26 16 -14 21
-13 23 5 24 13 1 18 -3 14 -13z m494 -461 c0 -2 -18 6 -40 17 -22 11 -40 25
-40 30 0 6 18 -2 40 -16 22 -15 40 -28 40 -31z m-555 -173 c3 -5 1 -10 -4 -10
-6 0 -11 5 -11 10 0 6 2 10 4 10 3 0 8 -4 11 -10z m106 -137 c12 -16 12 -17
-2 -6 -9 7 -20 9 -24 5 -5 -4 -5 -1 -1 6 9 16 11 15 27 -5z m109 -93 c0 -5 -7
-7 -15 -4 -8 4 -15 8 -15 10 0 2 7 4 15 4 8 0 15 -4 15 -10z m116 -176 c10 -8
12 -12 4 -8 -8 4 -4 -4 10 -18 30 -29 49 -25 23 5 -18 22 -18 22 4 4 18 -15
21 -27 14 -55 -2 -7 -91 71 -91 79 0 14 14 11 36 -7z"/>
<path d="M6067 5087 c-6 -40 -41 -81 -111 -129 -31 -21 -36 -28 -24 -33 10 -4
38 8 72 30 51 35 56 41 66 91 6 30 10 60 7 67 -2 6 -6 -5 -10 -26z"/>
<path d="M7710 2980 c0 -5 5 -10 10 -10 6 0 10 5 10 10 0 6 -4 10 -10 10 -5 0
-10 -4 -10 -10z"/>
<path d="M170 6115 c13 -14 26 -25 28 -25 3 0 -5 11 -18 25 -13 14 -26 25 -28
25 -3 0 5 -11 18 -25z"/>
<path d="M120 6115 c7 -9 15 -13 17 -11 7 7 -7 26 -19 26 -6 0 -6 -6 2 -15z"/>
<path d="M190 6058 c24 -27 45 -48 47 -48 8 0 0 9 -44 50 l-48 45 45 -47z"/>
<path d="M310 5985 c7 -9 15 -13 17 -11 7 7 -7 26 -19 26 -6 0 -6 -6 2 -15z"/>
<path d="M300 5963 c0 -6 8 -17 18 -24 16 -13 16 -13 2 6 -8 11 -16 22 -17 24
-2 2 -3 0 -3 -6z"/>
<path d="M360 5901 c0 -5 7 -12 16 -15 14 -5 15 -4 4 9 -14 17 -20 19 -20 6z"/>
<path d="M410 5846 c0 -2 7 -7 16 -10 8 -3 12 -2 9 4 -6 10 -25 14 -25 6z"/>
<path d="M750 5586 c0 -2 8 -10 18 -17 15 -13 16 -12 3 4 -13 16 -21 21 -21
13z"/>
<path d="M1520 4951 c0 -5 5 -13 10 -16 6 -3 10 -2 10 4 0 5 -4 13 -10 16 -5
3 -10 2 -10 -4z"/>
<path d="M2046 4497 c3 -10 9 -15 12 -12 3 3 0 11 -7 18 -10 9 -11 8 -5 -6z"/>
<path d="M2475 4101 c-3 -5 -2 -12 3 -15 5 -3 9 1 9 9 0 17 -3 19 -12 6z"/>
<path d="M4405 2320 c3 -5 8 -10 11 -10 2 0 4 5 4 10 0 6 -5 10 -11 10 -5 0
-7 -4 -4 -10z"/>
<path d="M4786 1967 c3 -10 9 -15 12 -12 3 3 0 11 -7 18 -10 9 -11 8 -5 -6z"/>
<path d="M4995 1780 c3 -5 11 -10 16 -10 6 0 7 5 4 10 -3 6 -11 10 -16 10 -6
0 -7 -4 -4 -10z"/>
<path d="M5120 1660 c0 -5 5 -10 11 -10 5 0 7 5 4 10 -3 6 -8 10 -11 10 -2 0
-4 -4 -4 -10z"/>
<path d="M6073 705 c0 -8 4 -12 9 -9 5 3 6 10 3 15 -9 13 -12 11 -12 -6z"/>
<path d="M6290 506 c10 -13 11 -20 4 -23 -7 -2 2 -17 18 -34 17 -16 32 -28 34
-26 2 2 -7 14 -20 26 -14 13 -22 29 -20 35 3 7 -3 19 -13 27 -17 13 -17 13 -3
-5z"/>
<path d="M6370 356 c0 -2 8 -10 18 -17 15 -13 16 -12 3 4 -13 16 -21 21 -21
13z"/>
<path d="M6410 314 c0 -10 38 -21 49 -15 9 6 3 10 -18 13 -17 2 -31 3 -31 2z"/>
<path d="M4300 5627 c0 -7 36 -48 79 -91 68 -68 78 -82 70 -98 -7 -13 -7 -23
0 -32 12 -15 10 -36 -7 -79 -15 -37 -15 -42 3 -57 10 -8 12 -17 6 -24 -6 -7
-6 -18 -1 -26 5 -8 7 -17 4 -21 -2 -4 14 -22 37 -40 22 -19 63 -55 91 -81 29
-27 56 -48 60 -48 4 0 8 -7 8 -17 0 -9 2 -14 5 -11 3 2 53 -42 111 -99 59 -57
110 -103 115 -103 5 0 9 -6 9 -12 0 -21 56 -48 70 -34 8 7 11 7 7 0 -3 -6 0
-11 8 -11 23 0 17 16 -10 29 -14 6 -25 15 -25 19 0 4 -66 72 -147 151 -82 78
-180 174 -219 213 l-70 70 1 65 c1 36 7 78 14 95 10 25 10 31 -4 41 -12 9 -14
17 -7 31 5 10 7 24 5 30 -10 27 -129 133 -150 133 -12 0 -25 5 -28 10 -9 14
-35 12 -35 -3z"/>
<path d="M4450 5586 c0 -2 7 -9 15 -16 13 -11 14 -10 9 4 -5 14 -24 23 -24 12z"/>
<path d="M4510 5531 c0 -6 4 -13 10 -16 6 -3 7 1 4 9 -7 18 -14 21 -14 7z"/>
<path d="M4544 5494 c3 -9 6 -18 6 -20 0 -2 4 -4 9 -4 5 0 7 9 4 20 -3 11 -10
20 -15 20 -6 0 -7 -7 -4 -16z"/>
<path d="M5210 5282 c0 -8 109 -113 113 -109 1 1 33 -31 71 -70 58 -62 96 -88
96 -68 0 3 -35 38 -77 78 -42 39 -102 96 -133 124 -53 51 -70 62 -70 45z"/>
<path d="M4400 5219 c7 -11 14 -18 17 -15 8 8 -5 36 -17 36 -7 0 -7 -6 0 -21z"/>
<path d="M5140 4820 c0 -5 8 -18 19 -27 93 -88 161 -158 161 -165 0 -5 -7 -11
-15 -14 -12 -5 -13 -10 -4 -20 6 -8 15 -11 20 -8 28 17 -2 -23 -85 -111 -79
-85 -95 -98 -108 -87 -13 10 -18 9 -28 -3 -11 -13 -15 -14 -29 -2 -20 18 -87
31 -95 19 -3 -5 -16 -7 -29 -5 -18 4 -34 -7 -72 -49 -27 -29 -97 -105 -155
-168 -58 -63 -132 -144 -165 -180 -115 -124 -137 -151 -131 -167 4 -9 1 -22
-5 -29 -9 -11 -8 -18 1 -29 6 -8 9 -19 5 -25 -4 -6 0 -22 9 -35 19 -28 20 -35
6 -35 -5 0 -10 6 -10 14 0 19 -40 67 -51 61 -17 -11 -9 -26 35 -72 37 -37 42
-48 33 -61 -32 -42 -157 -164 -157 -154 0 23 -29 12 -64 -25 -26 -28 -32 -41
-24 -50 7 -9 14 -10 23 -3 9 8 14 6 19 -6 6 -15 8 -15 26 1 18 17 20 17 26 1
5 -14 19 -4 70 51 115 123 158 176 148 186 -3 3 -1 14 5 25 8 15 7 23 -4 32
-11 9 -12 16 -5 25 7 9 4 20 -11 39 -11 14 -17 26 -12 26 4 0 19 -16 32 -35
24 -36 35 -42 46 -25 3 5 -14 32 -39 58 -44 47 -45 49 -29 71 9 13 38 44 64
69 27 25 47 47 45 49 -2 2 20 27 48 56 29 29 85 88 125 132 162 177 182 196
197 184 10 -8 17 -7 29 5 21 21 28 20 50 -4 13 -15 21 -17 31 -9 7 6 19 7 26
3 33 -21 63 -13 106 28 23 23 42 46 42 51 0 5 18 26 40 47 22 21 40 41 40 44
0 3 11 16 23 30 27 28 30 51 15 83 -8 16 -8 26 1 36 9 12 -4 28 -64 86 -42 39
-79 70 -84 67 -4 -3 -20 4 -37 15 -32 21 -54 25 -54 9z"/>
<path d="M5290 4791 c0 -10 39 -46 43 -40 2 2 -7 14 -20 26 -13 12 -23 19 -23
14z"/>
<path d="M3560 4748 c0 -22 46 -60 66 -56 14 2 9 10 -24 36 -27 22 -42 29 -42
20z"/>
<path d="M3463 4720 c3 -11 1 -20 -4 -20 -16 0 -10 -18 16 -47 22 -25 25 -26
26 -8 1 11 1 24 0 29 -1 5 10 1 24 -8 15 -10 29 -15 32 -12 3 3 17 -4 31 -14
31 -25 42 -25 42 -2 0 19 -77 88 -87 78 -3 -3 -18 1 -34 9 -39 20 -52 19 -46
-5z"/>
<path d="M5350 4726 c0 -2 8 -10 18 -17 15 -13 16 -12 3 4 -13 16 -21 21 -21
13z"/>
<path d="M5408 4670 c12 -11 24 -20 28 -20 4 0 -1 9 -11 20 -10 11 -23 20 -28
20 -6 0 -1 -9 11 -20z"/>
<path d="M2680 4453 c0 -3 48 -57 108 -120 59 -63 140 -152 181 -197 41 -44
108 -117 150 -161 42 -45 155 -166 251 -270 96 -104 216 -232 265 -285 50 -52
137 -147 195 -210 149 -162 224 -242 310 -330 41 -42 52 -51 24 -21 -260 283
-839 910 -888 961 -34 36 -150 160 -256 275 -229 248 -340 365 -340 358z"/>
<path d="M3420 4314 c-19 -14 -43 -23 -52 -20 -15 3 -16 1 -7 -16 13 -25 36
-33 53 -19 10 9 15 8 19 -4 5 -11 15 -13 39 -8 18 3 38 10 45 15 6 5 24 8 40
7 15 -1 57 -1 92 -1 l64 2 -23 25 c-22 23 -31 25 -111 25 -48 0 -91 -4 -94
-10 -9 -15 -25 -12 -19 4 9 25 -10 25 -46 0z"/>
<path d="M5695 4256 c-72 -73 -190 -199 -236 -252 -20 -24 -23 -34 -15 -48 8
-14 8 -20 -2 -23 -6 -3 -10 -8 -8 -11 2 -4 -103 -122 -233 -262 -167 -179
-245 -256 -264 -260 -15 -3 -64 -43 -119 -95 -158 -154 -249 -265 -217 -265 6
0 6 -7 -1 -19 -16 -30 -12 -41 14 -41 16 0 26 7 29 21 4 15 11 20 22 15 17 -6
56 29 152 137 41 46 63 53 63 21 0 -8 5 -15 10 -15 20 -3 25 -4 56 -17 25 -11
33 -21 37 -48 7 -40 -3 -73 -27 -93 -21 -17 -20 -31 1 -31 14 0 14 -2 -2 -20
-15 -16 -16 -22 -5 -35 11 -13 24 -14 69 -6 3 1 -4 7 -15 15 -18 14 -17 15 16
29 43 19 76 55 78 85 0 12 -3 20 -9 17 -5 -4 -9 -13 -9 -22 0 -13 -3 -13 -15
-3 -14 12 -14 15 0 30 8 9 15 26 15 37 0 22 -50 128 -83 176 -10 15 -13 27 -7
27 6 0 13 -8 17 -17 3 -10 15 -28 26 -40 10 -12 30 -43 43 -70 20 -40 23 -44
24 -22 0 30 -22 80 -56 125 l-23 31 265 287 c232 251 284 316 257 316 -4 0
-16 -9 -28 -20 -21 -19 -21 -19 -20 5 2 29 32 66 52 63 15 -3 104 93 97 104
-3 5 -15 3 -27 -3 -20 -10 -21 -10 -6 5 15 16 20 15 75 -15 32 -18 73 -41 89
-51 17 -10 41 -18 55 -18 19 0 2 14 -64 52 -50 29 -85 53 -79 55 10 4 180 -80
197 -97 5 -5 22 1 41 16 17 13 38 24 46 24 8 0 25 8 38 17 14 9 21 11 17 4 -5
-7 -26 -26 -48 -42 -37 -26 -39 -29 -17 -29 13 0 41 11 62 25 32 22 36 29 27
45 -9 16 -7 20 5 20 8 0 20 9 27 19 9 15 16 17 30 10 29 -16 37 19 8 41 -34
26 -81 19 -125 -18 -40 -32 -65 -41 -65 -21 0 5 -4 8 -8 5 -5 -3 -18 2 -28 12
-10 9 -37 19 -59 20 -22 2 -46 9 -52 14 -10 8 -13 6 -13 -6 0 -9 -6 -16 -14
-16 -27 0 -24 15 10 49 18 19 31 38 28 43 -3 4 2 8 11 8 8 0 22 8 31 19 10 11
24 16 35 14 12 -4 19 0 19 9 0 26 -38 51 -82 53 -41 3 -46 0 -113 -69z m-105
-220 c0 -2 -8 -10 -17 -17 -16 -13 -17 -12 -4 4 13 16 21 21 21 13z m-160
-239 c0 -2 -12 -14 -27 -28 l-28 -24 24 28 c23 25 31 32 31 24z m-130 -140 c0
-2 -12 -14 -27 -28 l-28 -24 24 28 c23 25 31 32 31 24z m-110 -120 c0 -2 -12
-14 -27 -28 l-28 -24 24 28 c23 25 31 32 31 24z m-150 -160 c0 -2 -10 -12 -22
-23 l-23 -19 19 23 c18 21 26 27 26 19z m-270 -231 c0 -2 -8 -10 -17 -17 -16
-13 -17 -12 -4 4 13 16 21 21 21 13z"/>
<path d="M4375 3799 c-4 -6 -5 -12 -2 -15 2 -3 7 2 10 11 7 17 1 20 -8 4z"/>
<path d="M4550 3675 c0 -8 4 -15 10 -15 5 0 7 7 4 15 -4 8 -8 15 -10 15 -2 0
-4 -7 -4 -15z"/>
<path d="M5091 3094 c0 -11 3 -14 6 -6 3 7 2 16 -1 19 -3 4 -6 -2 -5 -13z"/>
<path d="M5506 5801 c-3 -5 1 -12 10 -15 8 -3 12 -10 9 -16 -3 -5 -2 -10 3
-10 16 0 24 33 10 42 -17 10 -26 10 -32 -1z"/>
<path d="M5557 5753 c-3 -5 1 -13 8 -20 10 -9 14 -8 18 8 5 18 -16 28 -26 12z"/>
<path d="M5727 5604 c-8 -8 1 -24 14 -24 5 0 9 7 9 15 0 15 -12 20 -23 9z"/>
<path d="M5708 5553 c7 -3 16 -2 19 1 4 3 -2 6 -13 5 -11 0 -14 -3 -6 -6z"/>
</g>
</svg>
